ply
format ascii 1.0
comment Created by Blender 2.71 (sub 0) - www.blender.org, source file: 'Boat.blend'
element vertex 60
property float x
property float y
property float z
property uchar red
property uchar green
property uchar blue
element face 56
property list uchar uint vertex_indices
end_header
1.000000 0.226794 -2.000000 80 80 80
1.000000 0.106599 1.587203 80 80 80
1.000000 0.000000 1.285629 81 81 81
1.000000 0.106599 1.587203 43 43 43
-1.000000 0.106599 1.587203 56 56 56
-1.000000 0.000000 1.285629 53 53 53
-1.000000 0.226794 -2.000000 83 83 83
-1.000000 0.000000 -2.000000 70 70 70
-1.000000 0.000000 1.285629 72 72 72
1.000000 0.000000 -2.000000 52 52 52
1.000000 0.000000 -2.000000 43 43 43
1.000000 0.000000 1.285629 43 43 43
1.000000 0.405466 1.955375 65 65 65
-1.000000 0.405466 1.955376 58 58 58
-1.000000 0.274352 1.833794 54 54 54
1.000000 0.340192 -2.000000 93 93 93
1.000000 0.274352 1.833794 80 80 80
1.000000 0.274352 1.833794 44 44 44
-1.000000 0.340192 -2.000000 93 93 93
-1.000000 0.106599 1.587203 80 80 80
-1.000000 0.453589 1.934371 110 110 110
-1.000000 0.274352 1.833794 93 93 93
-1.000000 0.405466 1.955376 110 110 110
1.000000 0.453589 -2.000000 110 110 110
-1.000000 0.453589 -2.000000 110 110 110
1.000000 0.453589 1.934371 179 179 179
-1.000000 0.453589 1.934371 166 166 166
-1.000000 0.447142 1.961207 161 161 161
1.000000 0.447142 1.961207 179 179 179
-1.000000 0.447142 1.961207 156 156 156
-1.000000 0.429527 1.968895 156 156 156
1.000000 0.429527 1.968895 71 71 71
-1.000000 0.429527 1.968895 63 63 63
1.000000 0.453589 -2.000000 165 165 165
0.935204 0.453589 -1.715519 174 174 174
0.935204 0.453589 1.422009 169 169 169
0.935204 0.453589 -1.715519 135 135 135
0.935204 0.071354 -1.715519 126 126 126
0.935204 0.071354 1.246865 126 126 126
-1.000000 0.453589 -2.000000 160 160 160
-0.935204 0.453589 1.422009 164 164 164
-0.935204 0.453589 -1.715519 169 169 169
-0.935204 0.071354 -1.715519 139 139 139
-0.935204 0.071354 1.246865 133 133 133
0.935204 0.071354 1.246865 150 150 150
-0.935204 0.453589 -1.715519 135 135 135
-0.935204 0.453589 1.422009 135 135 135
-0.935204 0.071354 1.246865 126 126 126
0.935204 0.453589 1.422009 135 135 135
-0.935204 0.071354 -1.715519 126 126 126
1.000000 0.000000 -2.000000 70 70 70
-1.000000 0.000000 -2.000000 43 43 43
1.000000 0.453589 1.934371 110 110 110
-1.000000 0.447142 1.961207 110 110 110
-1.000000 0.429527 1.968895 110 110 110
1.000000 0.429527 1.968895 110 110 110
1.000000 0.405466 1.955375 110 110 110
1.000000 0.447142 1.961207 110 110 110
1.000000 0.429527 1.968895 178 178 178
0.935204 0.071354 -1.715519 132 132 132
3 0 1 2
3 3 4 5
3 6 7 8
3 6 0 9
3 10 11 5
3 12 13 14
3 15 16 1
3 17 14 4
3 18 6 19
3 18 15 0
3 20 21 22
3 16 15 23
3 24 23 15
3 25 26 27
3 28 29 30
3 31 32 13
3 33 34 35
3 36 37 38
3 39 26 40
3 26 25 35
3 33 39 41
3 42 43 44
3 45 46 47
3 46 48 38
3 36 45 49
3 50 0 2
3 11 3 5
3 19 6 8
3 7 6 9
3 51 10 5
3 17 12 14
3 0 15 1
3 3 17 4
3 21 18 19
3 6 18 0
3 52 16 23
3 20 22 53
3 18 21 24
3 21 20 24
3 22 54 53
3 55 56 57
3 16 52 56
3 56 52 57
3 18 24 15
3 28 25 27
3 58 28 30
3 12 31 13
3 25 33 35
3 48 36 38
3 41 39 40
3 40 26 35
3 34 33 41
3 59 42 44
3 49 45 47
3 47 46 38
3 37 36 49
