ply
format ascii 1.0
comment Created by Blender 2.71 (sub 0) - www.blender.org, source file: ''
element vertex 616
property float x
property float y
property float z
property uchar red
property uchar green
property uchar blue
element face 968
property list uchar uint vertex_indices
end_header
0.468750 0.242188 0.757812 2 0 156
0.437500 0.164062 0.765625 2 0 156
0.500000 0.093750 0.687500 32 0 138
-0.500000 0.093750 0.687500 249 0 8
-0.437500 0.164062 0.765625 2 0 156
-0.468750 0.242188 0.757812 2 0 156
0.562500 0.242188 0.671875 205 0 34
0.546875 0.054688 0.578125 197 0 40
-0.546875 0.054688 0.578125 255 0 5
-0.500000 0.093750 0.687500 255 0 5
-0.562500 0.242188 0.671875 255 0 5
0.500000 0.093750 0.687500 255 0 5
0.351562 0.031250 0.718750 255 0 5
0.351562 -0.023438 0.617188 255 0 5
-0.351562 -0.023438 0.617188 255 0 5
-0.351562 0.031250 0.718750 255 0 5
0.351562 0.132812 0.781250 2 0 156
-0.351562 0.132812 0.781250 3 0 156
0.273438 0.164062 0.796875 2 0 156
0.203125 0.093750 0.742188 255 0 5
-0.203125 0.093750 0.742188 255 0 5
-0.273438 0.164062 0.796875 3 0 155
0.156250 0.054688 0.648438 255 0 5
-0.156250 0.054688 0.648438 255 0 5
0.140625 0.242188 0.742188 255 255 255
0.078125 0.242188 0.656250 255 255 255
0.156250 0.054688 0.648438 255 255 255
-0.140625 0.242188 0.742188 255 255 255
-0.203125 0.093750 0.742188 255 255 255
-0.156250 0.054688 0.648438 255 255 255
0.242188 0.242188 0.796875 2 0 156
0.140625 0.242188 0.742188 255 0 5
-0.242188 0.242188 0.796875 3 0 155
0.273438 0.328125 0.796875 2 0 156
0.203125 0.390625 0.742188 255 0 5
-0.203125 0.390625 0.742188 255 0 5
-0.273438 0.328125 0.796875 4 0 155
0.203125 0.390625 0.742188 255 255 255
0.156250 0.437500 0.648438 255 255 255
-0.203125 0.390625 0.742188 255 255 255
-0.078125 0.242188 0.656250 255 255 255
0.351562 0.453125 0.718750 255 255 255
0.351562 0.515625 0.617188 255 255 255
-0.351562 0.453125 0.718750 255 255 255
-0.156250 0.437500 0.648438 255 255 255
0.351562 0.359375 0.781250 2 0 156
0.351562 0.453125 0.718750 255 0 5
-0.351562 0.359375 0.781250 2 0 156
0.437500 0.328125 0.765625 2 0 156
0.500000 0.390625 0.687500 255 0 5
-0.437500 0.328125 0.765625 4 0 155
-0.351562 0.453125 0.718750 255 0 5
0.500000 0.390625 0.687500 255 255 255
0.546875 0.437500 0.578125 255 255 255
-0.500000 0.390625 0.687500 255 255 255
-0.351562 0.515625 0.617188 255 255 255
0.625000 0.242188 0.562500 252 0 7
0.546875 0.437500 0.578125 255 0 5
-0.562500 0.242188 0.671875 228 0 20
-0.500000 0.390625 0.687500 255 0 5
-0.546875 0.437500 0.578125 255 0 5
0.437500 0.328125 0.765625 255 0 5
0.445312 0.335938 0.781250 255 0 5
0.476562 0.242188 0.773438 255 0 5
-0.437500 0.328125 0.765625 255 0 5
-0.468750 0.242188 0.757812 255 0 5
-0.476562 0.242188 0.773438 255 0 5
0.351562 0.359375 0.781250 255 0 5
0.351562 0.375000 0.804688 255 0 5
-0.351562 0.359375 0.781250 255 0 5
-0.445312 0.335938 0.781250 255 0 5
0.273438 0.328125 0.796875 255 0 5
0.265625 0.335938 0.820312 255 0 5
-0.273438 0.328125 0.796875 255 0 5
-0.351562 0.375000 0.804688 255 0 5
0.242188 0.242188 0.796875 255 0 5
0.226562 0.242188 0.820312 255 0 5
-0.242188 0.242188 0.796875 255 0 5
-0.265625 0.335938 0.820312 255 0 5
0.273438 0.164062 0.796875 255 0 5
0.265625 0.156250 0.820312 255 0 5
-0.265625 0.156250 0.820312 255 0 5
-0.273438 0.164062 0.796875 255 0 5
0.351562 0.132812 0.781250 255 0 5
0.351562 0.117188 0.804688 255 0 5
-0.351562 0.117188 0.804688 255 0 5
-0.351562 0.132812 0.781250 255 0 5
0.437500 0.164062 0.765625 255 0 5
0.445312 0.156250 0.781250 255 0 5
-0.445312 0.156250 0.781250 255 0 5
-0.437500 0.164062 0.765625 255 0 5
0.468750 0.242188 0.757812 255 0 5
0.351562 0.242188 0.828125 2 0 156
0.445312 0.156250 0.781250 2 0 156
0.476562 0.242188 0.773438 2 0 156
-0.476562 0.242188 0.773438 2 0 156
-0.445312 0.156250 0.781250 2 0 156
-0.351562 0.242188 0.828125 2 0 156
0.351562 0.117188 0.804688 33 0 137
-0.351562 0.117188 0.804688 41 0 130
0.265625 0.156250 0.820312 2 0 156
-0.265625 0.156250 0.820312 16 0 147
0.226562 0.242188 0.820312 2 0 156
-0.226562 0.242188 0.820312 26 0 142
0.265625 0.335938 0.820312 2 0 156
-0.265625 0.335938 0.820312 25 0 142
0.351562 0.375000 0.804688 7 0 152
-0.351562 0.375000 0.804688 32 0 138
0.445312 0.335938 0.781250 8 0 152
-0.445312 0.335938 0.781250 27 0 141
0.164062 -0.929688 0.632812 255 0 5
0.000000 -0.945312 0.640625 255 2 7
0.000000 -0.984375 0.578125 255 1 6
-0.164062 -0.929688 0.632812 255 9 14
-0.179688 -0.968750 0.554688 255 21 26
0.234375 -0.914062 0.632812 255 0 5
0.179688 -0.968750 0.554688 255 0 5
-0.234375 -0.914062 0.632812 255 5 10
-0.328125 -0.945312 0.523438 255 8 13
0.367188 -0.890625 0.531250 255 0 5
0.265625 -0.820312 0.664062 255 0 5
-0.234375 -0.914062 0.632812 255 0 5
-0.265625 -0.820312 0.664062 255 0 5
-0.367188 -0.890625 0.531250 255 0 5
0.351562 -0.695312 0.570312 255 0 5
0.250000 -0.703125 0.687500 255 0 5
-0.250000 -0.703125 0.687500 255 0 5
-0.351562 -0.695312 0.570312 255 0 5
0.312500 -0.437500 0.570312 255 0 5
0.210938 -0.445312 0.710938 255 0 5
-0.210938 -0.445312 0.710938 255 0 5
-0.312500 -0.437500 0.570312 255 0 5
0.203125 -0.187500 0.562500 219 0 27
0.437500 -0.140625 0.531250 255 0 5
0.398438 -0.046875 0.671875 255 0 5
-0.398438 -0.046875 0.671875 255 0 5
-0.437500 -0.140625 0.531250 255 0 5
-0.203125 -0.187500 0.562500 255 0 5
0.632812 -0.039062 0.539062 255 0 5
0.617188 0.054688 0.625000 255 0 5
-0.632812 -0.039062 0.539062 255 0 5
0.828125 0.148438 0.445312 255 0 5
0.726562 0.203125 0.601562 255 0 5
-0.726562 0.203125 0.601562 255 0 5
-0.828125 0.148438 0.445312 255 0 5
0.859375 0.429688 0.593750 255 0 5
0.742188 0.375000 0.656250 255 0 5
-0.859375 0.429688 0.593750 255 0 5
0.710938 0.484375 0.625000 255 0 5
0.687500 0.414062 0.726562 255 0 5
-0.710938 0.484375 0.625000 255 0 5
-0.742188 0.375000 0.656250 255 0 5
0.492188 0.601562 0.687500 255 0 5
0.437500 0.546875 0.796875 255 0 5
-0.492188 0.601562 0.687500 255 0 5
-0.687500 0.414062 0.726562 255 0 5
0.320312 0.757812 0.734375 255 0 5
0.312500 0.640625 0.835938 255 0 5
-0.312500 0.640625 0.835938 255 0 5
-0.320312 0.757812 0.734375 255 0 5
0.156250 0.718750 0.757812 255 0 5
0.203125 0.617188 0.851562 255 0 5
-0.156250 0.718750 0.757812 255 0 5
0.062500 0.492188 0.750000 255 0 5
0.101562 0.429688 0.843750 255 0 5
-0.062500 0.492188 0.750000 255 0 5
-0.203125 0.617188 0.851562 255 0 5
0.000000 0.429688 0.742188 255 0 5
0.000000 0.351562 0.820312 255 0 5
-0.101562 0.429688 0.843750 255 0 5
0.250000 0.468750 0.757812 255 0 5
-0.250000 0.468750 0.757812 255 0 5
-0.164062 0.414062 0.773438 255 0 5
0.328125 0.476562 0.742188 255 0 5
-0.328125 0.476562 0.742188 255 0 5
-0.437500 0.546875 0.796875 255 0 5
-0.429688 0.437500 0.718750 255 0 5
0.429688 0.437500 0.718750 255 0 5
-0.601562 0.375000 0.664062 255 0 5
0.601562 0.375000 0.664062 255 0 5
-0.640625 0.296875 0.648438 255 0 5
0.640625 0.296875 0.648438 255 0 5
-0.625000 0.187500 0.648438 255 0 5
0.625000 0.187500 0.648438 255 0 5
-0.617188 0.054688 0.625000 255 0 5
-0.492188 0.062500 0.671875 255 0 5
0.492188 0.062500 0.671875 207 0 34
-0.375000 0.015625 0.703125 255 0 5
0.203125 0.093750 0.742188 255 0 5
0.125000 -0.101562 0.812500 253 0 6
-0.125000 -0.101562 0.812500 251 0 7
-0.203125 0.093750 0.742188 255 0 5
0.164062 0.140625 0.750000 255 0 5
0.000000 0.046875 0.726562 255 0 5
-0.164062 0.140625 0.750000 255 0 5
0.125000 0.304688 0.765625 255 0 5
-0.125000 0.304688 0.765625 255 0 5
0.000000 0.210938 0.765625 255 0 5
0.132812 0.210938 0.757812 255 0 5
0.062500 -0.882812 0.695312 59 0 121
0.000000 -0.890625 0.687500 16 0 147
0.000000 -0.945312 0.640625 255 0 5
-0.062500 -0.882812 0.695312 12 0 150
0.117188 -0.835938 0.710938 156 0 64
-0.164062 -0.929688 0.632812 255 0 5
-0.117188 -0.835938 0.710938 26 0 142
-0.109375 -0.718750 0.734375 185 0 46
0.078125 -0.445312 0.750000 255 0 5
0.117188 -0.687500 0.734375 252 0 7
-0.117188 -0.687500 0.734375 254 0 6
-0.078125 -0.445312 0.750000 255 0 5
0.109375 -0.718750 0.734375 187 0 46
0.000000 -0.328125 0.742188 44 0 131
0.000000 -0.445312 0.750000 255 0 5
-0.085938 -0.289062 0.742188 59 0 122
0.000000 -0.679688 0.734375 255 0 5
0.000000 -0.765625 0.734375 153 0 66
0.125000 -0.226562 0.750000 255 0 5
0.132812 -0.226562 0.796875 255 0 5
0.093750 -0.273438 0.781250 255 0 5
-0.093750 -0.273438 0.781250 43 0 132
-0.132812 -0.226562 0.796875 6 0 154
-0.125000 -0.226562 0.750000 2 0 156
0.109375 -0.132812 0.781250 255 0 5
-0.109375 -0.132812 0.781250 255 0 5
-0.101562 -0.148438 0.742188 255 0 5
-0.125000 -0.226562 0.750000 255 0 5
0.039062 -0.125000 0.781250 255 0 5
0.101562 -0.148438 0.742188 255 0 5
-0.039062 -0.125000 0.781250 255 0 5
0.000000 -0.140625 0.742188 255 0 5
0.000000 -0.187500 0.796875 2 0 156
0.039062 -0.125000 0.781250 85 0 106
0.000000 -0.140625 0.742188 26 0 142
0.000000 -0.195312 0.750000 2 0 156
0.085938 -0.289062 0.742188 255 0 5
0.000000 -0.320312 0.781250 255 0 5
0.000000 -0.320312 0.781250 64 0 120
0.093750 -0.273438 0.781250 4 0 154
0.078125 -0.250000 0.804688 2 0 156
0.000000 -0.289062 0.804688 3 0 156
0.000000 -0.203125 0.828125 2 0 156
0.046875 -0.148438 0.812500 2 0 156
-0.046875 -0.148438 0.812500 2 0 156
0.093750 -0.156250 0.812500 2 0 156
-0.093750 -0.156250 0.812500 2 0 156
-0.039062 -0.125000 0.781250 70 0 115
0.109375 -0.226562 0.828125 5 0 155
0.132812 -0.226562 0.796875 25 0 141
-0.109375 -0.132812 0.781250 121 0 85
-0.078125 -0.250000 0.804688 2 0 156
-0.109375 -0.226562 0.828125 2 0 156
0.101562 -0.148438 0.742188 37 0 135
-0.101562 -0.148438 0.742188 60 0 122
0.125000 -0.226562 0.750000 2 0 156
0.164062 -0.242188 0.710938 59 0 122
-0.164062 -0.242188 0.710938 173 0 54
0.085938 -0.289062 0.742188 3 0 155
0.179688 -0.312500 0.710938 255 0 5
-0.179688 -0.312500 0.710938 255 0 5
0.257812 -0.312500 0.554688 255 0 5
-0.257812 -0.312500 0.554688 255 0 5
0.234375 -0.250000 0.554688 214 0 30
-0.234375 -0.250000 0.554688 255 0 5
0.000000 -0.773438 0.718750 72 0 115
0.093750 -0.742188 0.726562 16 0 148
-0.093750 -0.742188 0.726562 7 0 152
0.093750 -0.820312 0.710938 3 0 155
-0.093750 -0.820312 0.710938 2 0 156
0.046875 -0.867188 0.687500 4 0 155
-0.046875 -0.867188 0.687500 2 0 156
0.046875 -0.867188 0.687500 255 0 5
0.046875 -0.851562 0.632812 255 0 5
0.000000 -0.859375 0.632812 255 0 5
-0.046875 -0.867188 0.687500 255 0 5
0.000000 -0.875000 0.687500 255 0 5
0.093750 -0.820312 0.710938 255 0 5
0.093750 -0.812500 0.640625 255 0 5
-0.093750 -0.812500 0.640625 255 0 5
-0.093750 -0.820312 0.710938 255 0 5
0.093750 -0.750000 0.664062 2 0 156
-0.093750 -0.750000 0.664062 255 0 5
-0.093750 -0.742188 0.726562 255 0 5
0.000000 -0.781250 0.656250 2 0 156
-0.093750 -0.750000 0.664062 2 0 156
0.000000 -0.859375 0.632812 57 0 123
0.046875 -0.851562 0.632812 76 0 112
-0.046875 -0.851562 0.632812 44 0 130
0.093750 -0.812500 0.640625 35 0 136
-0.093750 -0.812500 0.640625 11 0 150
0.187500 0.156250 0.773438 255 0 5
-0.187500 0.156250 0.773438 255 0 5
-0.132812 0.210938 0.757812 255 0 5
0.171875 0.218750 0.781250 246 0 10
-0.171875 0.218750 0.781250 255 0 5
0.179688 0.296875 0.781250 128 0 81
0.210938 0.375000 0.781250 230 0 20
-0.210938 0.375000 0.781250 255 0 5
0.226562 0.109375 0.781250 255 0 5
0.375000 0.015625 0.703125 255 0 5
0.375000 0.062500 0.742188 255 0 5
-0.375000 0.062500 0.742188 255 0 5
0.476562 0.101562 0.718750 13 0 149
-0.476562 0.101562 0.718750 203 0 33
0.578125 0.195312 0.679688 235 0 17
-0.578125 0.195312 0.679688 255 0 5
0.585938 0.289062 0.687500 255 0 5
-0.585938 0.289062 0.687500 255 0 5
0.562500 0.351562 0.695312 255 0 5
0.421875 0.398438 0.773438 252 0 8
-0.562500 0.351562 0.695312 255 0 5
0.335938 0.429688 0.757812 255 0 5
-0.335938 0.429688 0.757812 255 0 5
0.273438 0.421875 0.773438 255 0 5
-0.273438 0.421875 0.773438 255 0 5
0.164062 0.414062 0.773438 255 0 5
0.234375 0.359375 0.757812 75 0 113
-0.234375 0.359375 0.757812 253 0 6
0.281250 0.398438 0.765625 200 0 38
-0.281250 0.398438 0.765625 253 0 6
0.335938 0.406250 0.750000 194 0 42
0.414062 0.390625 0.750000 192 0 42
-0.421875 0.398438 0.773438 255 0 5
-0.414062 0.390625 0.750000 252 0 7
0.531250 0.335938 0.679688 234 0 17
-0.531250 0.335938 0.679688 251 0 7
0.554688 0.281250 0.671875 198 0 38
0.546875 0.210938 0.671875 81 0 110
-0.546875 0.210938 0.671875 143 0 61
0.460938 0.117188 0.703125 2 0 156
0.375000 0.085938 0.726562 207 0 34
-0.375000 0.085938 0.726562 200 0 38
0.242188 0.125000 0.757812 230 0 21
-0.226562 0.109375 0.781250 255 0 5
-0.242188 0.125000 0.757812 234 0 16
0.195312 0.296875 0.757812 51 0 128
-0.195312 0.296875 0.757812 254 0 6
-0.179688 0.296875 0.781250 255 0 5
0.195312 0.226562 0.750000 150 0 67
-0.195312 0.226562 0.750000 232 0 18
0.203125 0.171875 0.750000 248 0 9
-0.203125 0.171875 0.750000 239 0 15
0.109375 0.460938 0.609375 255 0 5
-0.109375 0.460938 0.609375 255 0 5
0.195312 0.664062 0.617188 255 0 5
-0.195312 0.664062 0.617188 255 0 5
0.335938 0.687500 0.593750 255 0 5
0.484375 0.554688 0.554688 255 0 5
-0.335938 0.687500 0.593750 255 0 5
0.679688 0.453125 0.492188 255 0 5
-0.484375 0.554688 0.554688 255 0 5
0.796875 0.406250 0.460938 255 0 5
-0.796875 0.406250 0.460938 255 0 5
0.773438 0.164062 0.375000 255 0 5
0.601562 0.000000 0.414062 255 0 5
-0.601562 0.000000 0.414062 255 0 5
0.437500 -0.093750 0.468750 255 0 5
-0.437500 -0.093750 0.468750 255 0 5
0.000000 -0.484375 0.281250 255 0 5
0.179688 -0.414062 0.257812 255 0 5
0.125000 -0.539062 0.359375 255 0 5
0.000000 -0.570312 0.320312 255 0 5
-0.125000 -0.539062 0.359375 255 0 5
0.140625 -0.757812 0.367188 255 0 5
0.000000 -0.804688 0.343750 255 0 5
-0.140625 -0.757812 0.367188 255 0 5
0.164062 -0.945312 0.437500 255 0 5
0.000000 -0.976562 0.460938 255 0 5
-0.164062 -0.945312 0.437500 255 0 5
0.328125 -0.945312 0.523438 255 0 5
-0.164062 -0.945312 0.437500 255 3 8
0.328125 -0.914062 0.398438 255 0 5
-0.328125 -0.914062 0.398438 255 0 5
-0.328125 -0.945312 0.523438 255 0 5
0.289062 -0.710938 0.382812 255 0 5
-0.289062 -0.710938 0.382812 255 0 5
0.250000 -0.500000 0.390625 255 0 5
-0.250000 -0.500000 0.390625 255 0 5
-0.234375 -0.351562 0.406250 255 0 5
-0.179688 -0.414062 0.257812 255 0 5
0.218750 -0.281250 0.429688 255 0 5
0.210938 -0.226562 0.468750 255 0 5
0.234375 -0.250000 0.554688 255 0 5
-0.218750 -0.281250 0.429688 255 0 5
0.234375 -0.351562 0.406250 255 0 5
0.203125 -0.171875 0.500000 255 0 5
-0.203125 -0.171875 0.500000 255 0 5
0.335938 0.054688 -0.664062 255 0 5
0.343750 -0.148438 -0.539062 255 0 5
0.000000 -0.195312 -0.671875 255 0 5
-0.335938 0.054688 -0.664062 255 0 5
0.000000 0.070312 -0.828125 255 0 5
0.296875 -0.312500 -0.265625 255 0 5
0.000000 -0.382812 -0.351562 255 0 5
-0.343750 -0.148438 -0.539062 255 0 5
0.210938 -0.390625 0.164062 255 0 5
-0.210938 -0.390625 0.164062 255 0 5
-0.296875 -0.312500 -0.265625 255 0 5
0.000000 -0.460938 0.187500 255 0 5
0.734375 -0.046875 0.070312 255 0 5
-0.734375 -0.046875 0.070312 255 0 5
-0.773438 0.164062 0.375000 255 0 5
0.460938 0.437500 -0.703125 255 0 5
-0.460938 0.437500 -0.703125 255 0 5
0.000000 0.562500 -0.851562 255 0 5
0.453125 0.851562 0.234375 110 114 8
0.453125 0.929688 -0.070312 0 199 10
0.000000 0.984375 -0.078125 1 198 10
-0.453125 0.851562 0.234375 0 199 10
0.000000 0.898438 0.289062 0 199 10
0.453125 0.867188 -0.382812 0 199 10
-0.453125 0.867188 -0.382812 129 100 7
-0.453125 0.929688 -0.070312 0 199 10
0.000000 0.898438 -0.546875 255 0 5
0.453125 0.867188 -0.382812 255 0 5
-0.453125 0.867188 -0.382812 255 0 5
0.726562 0.406250 0.335938 255 0 5
-0.726562 0.406250 0.335938 255 0 5
-0.679688 0.453125 0.492188 255 0 5
0.632812 0.453125 0.281250 255 0 5
0.796875 0.562500 0.125000 255 0 5
-0.796875 0.562500 0.125000 255 0 5
-0.632812 0.453125 0.281250 255 0 5
0.640625 0.703125 0.054688 143 87 7
0.796875 0.617188 -0.117188 169 67 7
-0.796875 0.617188 -0.117188 255 0 5
-0.640625 0.703125 0.054688 255 0 5
0.640625 0.750000 -0.195312 255 0 5
0.796875 0.617188 -0.117188 255 0 5
0.796875 0.539062 -0.359375 255 0 5
-0.796875 0.539062 -0.359375 255 0 5
-0.640625 0.750000 -0.195312 255 0 5
0.617188 0.328125 -0.585938 255 0 5
0.640625 0.679688 -0.445312 255 0 5
-0.617188 0.328125 -0.585938 255 0 5
-0.773438 0.265625 -0.437500 255 0 5
-0.640625 0.679688 -0.445312 255 0 5
0.453125 0.929688 -0.070312 255 0 5
0.460938 0.523438 0.429688 255 0 5
-0.460938 0.523438 0.429688 255 0 5
0.000000 0.570312 0.570312 255 0 5
0.000000 0.406250 0.601562 255 0 5
0.851562 0.234375 0.054688 255 0 5
0.859375 0.320312 -0.046875 255 0 5
-0.859375 0.320312 -0.046875 255 0 5
-0.851562 0.234375 0.054688 255 0 5
0.820312 0.328125 -0.203125 255 0 5
-0.820312 0.328125 -0.203125 255 0 5
0.429688 -0.195312 -0.210938 255 0 5
0.406250 -0.171875 0.148438 255 0 5
-0.406250 -0.171875 0.148438 255 0 5
0.593750 -0.125000 -0.164062 255 0 5
-0.593750 -0.125000 -0.164062 255 0 5
0.210938 -0.226562 0.468750 82 0 108
0.218750 -0.281250 0.429688 4 0 154
-0.210938 -0.226562 0.468750 255 0 5
0.203125 -0.171875 0.500000 249 0 9
0.640625 -0.007812 -0.429688 255 0 5
0.484375 0.023438 -0.546875 255 0 5
-0.640625 -0.007812 -0.429688 255 0 5
-0.429688 -0.195312 -0.210938 255 0 5
-0.484375 0.023438 -0.546875 255 0 5
0.890625 0.406250 -0.234375 7 193 10
0.921875 0.359375 -0.218750 111 112 8
1.015625 0.414062 -0.289062 238 13 5
-0.890625 0.406250 -0.234375 255 0 5
-1.023438 0.476562 -0.312500 255 0 5
-1.015625 0.414062 -0.289062 255 0 5
1.023438 0.476562 -0.312500 255 0 5
1.187500 0.437500 -0.390625 255 0 5
-1.187500 0.437500 -0.390625 255 0 5
1.265625 0.289062 -0.406250 255 0 5
1.351562 0.320312 -0.421875 255 0 5
-1.234375 0.507812 -0.421875 255 0 5
-1.351562 0.320312 -0.421875 255 0 5
1.210938 0.078125 -0.406250 255 0 5
1.281250 0.054688 -0.429688 255 0 5
-1.265625 0.289062 -0.406250 255 0 5
-1.281250 0.054688 -0.429688 255 0 5
1.031250 -0.039062 -0.304688 255 0 5
1.039062 -0.101562 -0.328125 255 0 5
-1.210938 0.078125 -0.406250 255 0 5
-1.039062 -0.101562 -0.328125 255 0 5
0.828125 -0.070312 -0.132812 255 0 5
-0.828125 -0.070312 -0.132812 255 0 5
-1.031250 -0.039062 -0.304688 255 0 5
1.039062 0.000000 -0.367188 255 0 5
0.882812 -0.023438 -0.210938 255 0 5
-0.882812 -0.023438 -0.210938 255 0 5
-1.039062 0.000000 -0.367188 255 0 5
1.187500 0.093750 -0.445312 255 0 5
-1.187500 0.093750 -0.445312 255 0 5
1.234375 0.250000 -0.445312 255 0 5
1.187500 0.093750 -0.445312 195 46 5
-1.234375 0.250000 -0.445312 255 0 5
1.171875 0.359375 -0.437500 255 0 5
-1.171875 0.359375 -0.437500 255 0 5
1.023438 0.343750 -0.359375 255 0 5
-1.023438 0.343750 -0.359375 255 0 5
1.015625 0.414062 -0.289062 255 0 5
0.921875 0.359375 -0.218750 255 0 5
0.945312 0.304688 -0.289062 255 0 5
-0.945312 0.304688 -0.289062 255 0 5
-0.921875 0.359375 -0.218750 255 0 5
0.718750 -0.023438 -0.171875 255 0 5
0.726562 0.000000 -0.070312 255 0 5
-0.726562 0.000000 -0.070312 255 0 5
0.773438 -0.140625 -0.125000 255 0 5
-0.773438 -0.140625 -0.125000 255 0 5
-0.718750 -0.023438 -0.171875 255 0 5
0.843750 0.289062 -0.210938 255 0 5
-0.843750 0.289062 -0.210938 255 0 5
0.812500 -0.015625 -0.273438 255 0 5
-0.812500 -0.015625 -0.273438 255 0 5
0.718750 0.039062 -0.187500 255 0 5
-0.718750 0.039062 -0.187500 255 0 5
-0.843750 0.015625 -0.273438 255 0 5
0.757812 0.093750 -0.273438 255 0 5
0.843750 0.015625 -0.273438 255 0 5
-0.757812 0.093750 -0.273438 255 0 5
0.796875 0.203125 -0.210938 255 0 5
-0.796875 0.203125 -0.210938 255 0 5
-0.835938 0.171875 -0.273438 255 0 5
0.835938 0.171875 -0.273438 255 0 5
0.890625 0.242188 -0.265625 255 0 5
-0.890625 0.242188 -0.265625 255 0 5
0.890625 0.234375 -0.320312 255 0 5
-0.890625 0.234375 -0.320312 255 0 5
0.843750 0.171875 -0.320312 255 0 5
0.765625 0.093750 -0.320312 255 0 5
-0.765625 0.093750 -0.320312 255 0 5
0.820312 0.085938 -0.273438 255 0 5
0.828125 0.078125 -0.320312 255 0 5
-0.820312 0.085938 -0.273438 255 0 5
0.851562 0.015625 -0.320312 255 0 5
-0.828125 0.078125 -0.320312 255 0 5
0.812500 -0.015625 -0.320312 255 0 5
-0.812500 -0.015625 -0.320312 255 0 5
0.882812 -0.015625 -0.265625 255 0 5
-0.882812 -0.015625 -0.265625 255 0 5
0.953125 0.289062 -0.343750 255 0 5
-0.953125 0.289062 -0.343750 255 0 5
1.039062 0.328125 -0.414062 255 0 5
-1.039062 0.328125 -0.414062 255 0 5
1.187500 0.343750 -0.484375 255 0 5
-1.187500 0.343750 -0.484375 255 0 5
-1.234375 0.250000 -0.445312 255 64 68
1.257812 0.242188 -0.492188 255 0 5
1.210938 0.085938 -0.484375 158 75 6
-1.210938 0.085938 -0.484375 255 0 5
1.210938 0.085938 -0.484375 255 0 5
1.046875 0.000000 -0.421875 255 0 5
-1.046875 0.000000 -0.421875 255 0 5
0.937500 0.062500 -0.335938 255 0 5
0.890625 0.109375 -0.328125 255 0 5
-0.851562 0.015625 -0.320312 255 0 5
-0.890625 0.109375 -0.328125 255 0 5
1.000000 0.125000 -0.367188 255 0 5
0.960938 0.171875 -0.351562 255 0 5
-0.937500 0.062500 -0.335938 255 0 5
-0.960938 0.171875 -0.351562 255 0 5
1.054688 0.187500 -0.382812 255 0 5
-1.054688 0.187500 -0.382812 255 0 5
-1.000000 0.125000 -0.367188 255 0 5
1.109375 0.210938 -0.390625 255 0 5
1.085938 0.273438 -0.390625 255 0 5
-1.015625 0.234375 -0.375000 255 0 5
-1.085938 0.273438 -0.390625 255 0 5
1.015625 0.234375 -0.375000 255 0 5
-0.843750 0.171875 -0.320312 255 0 5
1.109375 0.210938 -0.390625 155 77 7
1.054688 0.187500 -0.382812 17 185 10
1.210938 0.085938 -0.484375 159 75 6
-1.109375 0.210938 -0.390625 255 0 5
-1.257812 0.242188 -0.492188 255 0 5
1.085938 0.273438 -0.390625 107 116 7
0.789062 -0.125000 -0.328125 255 0 5
-0.789062 -0.125000 -0.328125 255 0 5
1.039062 -0.085938 -0.492188 255 0 5
-1.039062 -0.085938 -0.492188 255 0 5
1.312500 0.054688 -0.531250 255 0 5
1.367188 0.296875 -0.500000 255 0 5
-1.367188 0.296875 -0.500000 255 0 5
1.250000 0.468750 -0.546875 255 0 5
-1.250000 0.468750 -0.546875 255 0 5
1.234375 0.507812 -0.421875 255 0 5
1.023438 0.437500 -0.484375 29 177 9
-1.023438 0.437500 -0.484375 255 0 5
0.859375 0.382812 -0.382812 0 199 10
-0.859375 0.382812 -0.382812 255 0 5
0.859375 0.382812 -0.382812 255 0 5
1.023438 0.437500 -0.484375 255 0 5
-1.312500 0.054688 -0.531250 255 0 5
0.890625 0.406250 -0.234375 255 0 5
0.773438 0.265625 -0.437500 255 0 5
-0.625000 0.242188 0.562500 255 0 5
0.546875 0.054688 0.578125 255 0 5
0.203125 0.093750 0.742188 255 255 255
-0.140625 0.242188 0.742188 255 0 5
-0.546875 0.437500 0.578125 255 255 255
-0.226562 0.242188 0.820312 255 0 5
-0.132812 -0.226562 0.796875 255 0 5
0.000000 -0.328125 0.742188 255 0 5
0.109375 -0.132812 0.781250 130 0 78
0.000000 -0.875000 0.687500 2 0 156
-0.046875 -0.851562 0.632812 255 0 5
-0.335938 0.406250 0.750000 248 0 9
-0.554688 0.281250 0.671875 217 0 28
-0.460938 0.117188 0.703125 34 0 131
-0.328125 -0.914062 0.398438 255 2 7
0.203125 -0.187500 0.562500 255 0 5
0.000000 0.898438 -0.546875 26 178 9
0.640625 0.750000 -0.195312 0 199 10
-1.257812 0.242188 -0.492188 255 41 45
-1.312500 0.054688 -0.531250 255 1 6
0.890625 0.406250 -0.234375 8 192 10
3 0 1 2
3 3 4 5
3 6 2 7
3 8 9 10
3 11 12 13
3 14 15 9
3 1 16 12
3 15 17 4
3 16 18 19
3 20 21 17
3 12 19 22
3 23 20 15
3 24 25 26
3 27 28 29
3 30 31 19
3 32 21 20
3 30 33 34
3 35 36 32
3 37 38 25
3 39 27 40
3 41 42 38
3 43 39 44
3 45 46 34
3 47 36 35
3 48 49 46
3 50 47 51
3 52 53 42
3 54 43 55
3 6 56 57
3 58 59 60
3 0 6 49
3 5 50 59
3 61 62 63
3 64 65 66
3 67 68 62
3 69 64 70
3 71 72 68
3 73 69 74
3 75 76 72
3 77 73 78
3 75 79 80
3 81 82 77
3 79 83 84
3 85 86 82
3 83 87 88
3 89 90 86
3 87 91 63
3 66 65 90
3 92 93 94
3 95 96 97
3 98 93 92
3 97 96 99
3 92 100 98
3 99 101 97
3 92 102 100
3 101 103 97
3 92 104 102
3 103 105 97
3 92 106 104
3 105 107 97
3 92 108 106
3 107 109 97
3 92 94 108
3 109 95 97
3 110 111 112
3 113 114 112
3 115 110 116
3 117 118 114
3 119 120 115
3 121 122 123
3 124 125 120
3 122 126 127
3 128 129 125
3 126 130 131
3 132 133 134
3 135 136 137
3 138 139 134
3 140 136 135
3 138 141 142
3 143 144 140
3 145 146 142
3 147 144 143
3 148 149 146
3 150 147 151
3 152 153 149
3 154 150 155
3 152 156 157
3 158 159 154
3 160 161 157
3 162 159 158
3 163 164 161
3 165 162 166
3 167 168 164
3 167 165 169
3 170 161 164
3 171 172 169
3 170 173 157
3 158 174 171
3 153 157 173
3 175 176 174
3 149 153 177
3 155 178 176
3 146 149 179
3 151 180 178
3 142 146 181
3 143 182 180
3 139 142 183
3 184 185 182
3 134 139 186
3 135 187 185
3 188 189 134
3 135 190 191
3 188 192 193
3 193 194 191
3 164 168 195
3 169 172 196
3 195 168 197
3 197 168 196
3 192 198 197
3 194 193 197
3 199 200 201
3 201 200 202
3 203 199 110
3 204 202 205
3 203 115 120
3 205 206 122
3 129 207 208
3 209 210 130
3 211 120 125
3 126 122 206
3 212 213 207
3 212 214 210
3 207 213 215
3 210 209 215
3 211 208 215
3 206 216 215
3 217 218 219
3 220 221 222
3 223 218 217
3 224 225 226
3 227 223 228
3 229 230 225
3 231 232 233
3 231 234 233
3 235 219 236
3 214 212 237
3 238 239 240
3 220 237 240
3 231 241 242
3 243 241 231
3 232 242 244
3 245 243 246
3 244 247 248
3 245 249 221
3 248 247 239
3 250 251 221
3 247 244 242
3 251 241 243
3 241 240 239
3 250 240 241
3 233 252 189
3 190 253 233
3 252 254 255
3 256 222 253
3 257 258 255
3 214 222 256
3 207 129 258
3 210 214 259
3 260 258 129
3 261 131 130
3 262 255 258
3 263 261 259
3 132 189 255
3 256 190 137
3 216 264 265
3 216 206 266
3 203 211 265
3 266 206 205
3 199 203 267
3 268 205 202
3 200 199 269
3 270 202 200
3 271 272 273
3 274 275 273
3 271 276 277
3 278 279 274
3 267 265 280
3 281 282 279
3 264 283 280
3 264 266 284
3 283 285 286
3 287 285 283
3 280 286 288
3 289 287 284
3 198 192 290
3 291 194 292
3 195 198 293
3 294 292 196
3 195 295 296
3 196 172 297
3 188 298 290
3 191 194 291
3 188 299 300
3 301 187 191
3 299 186 302
3 303 185 187
3 186 183 304
3 305 182 185
3 183 181 306
3 307 180 182
3 179 308 306
3 178 180 307
3 177 309 308
3 176 178 310
3 177 173 311
3 312 174 176
3 173 170 313
3 314 171 174
3 170 315 296
3 297 172 171
3 313 296 316
3 317 297 314
3 311 313 318
3 319 314 312
3 311 320 321
3 312 322 323
3 309 321 324
3 322 310 325
3 306 308 324
3 325 310 307
3 306 326 327
3 307 305 328
3 302 304 327
3 328 305 303
3 302 329 330
3 303 301 331
3 300 330 332
3 301 333 334
3 290 298 332
3 334 333 291
3 296 295 335
3 336 337 297
3 295 293 338
3 339 294 337
3 293 290 340
3 341 291 294
3 167 163 342
3 343 165 167
3 163 160 344
3 345 162 165
3 156 346 344
3 159 162 345
3 152 347 346
3 154 159 348
3 148 349 347
3 150 154 350
3 148 145 351
3 352 147 150
3 141 353 351
3 144 147 352
3 141 138 354
3 355 140 144
3 138 133 356
3 357 136 140
3 358 359 360
3 358 361 362
3 361 360 363
3 361 364 365
3 364 363 366
3 364 367 368
3 116 112 367
3 367 112 114
3 369 116 366
3 370 114 118
3 119 369 371
3 372 373 123
3 124 119 374
3 375 123 127
3 374 363 360
3 362 365 375
3 371 366 363
3 372 375 365
3 376 360 359
3 377 378 379
3 128 124 376
3 377 127 131
3 380 381 382
3 383 261 263
3 384 380 260
3 378 131 261
3 382 381 385
3 263 137 386
3 385 356 133
3 386 137 136
3 387 388 389
3 390 391 389
3 388 392 393
3 394 389 393
3 393 392 395
3 396 397 393
3 398 395 359
3 379 396 398
3 359 395 380
3 379 378 383
3 353 354 399
3 400 355 401
3 402 387 391
3 403 404 391
3 405 406 407
3 408 409 407
3 407 406 410
3 411 412 407
3 413 414 402
3 403 415 413
3 349 351 416
3 417 352 418
3 419 416 420
3 421 417 422
3 423 420 424
3 425 421 426
3 427 428 429
3 430 425 431
3 432 433 429
3 434 435 430
3 402 414 433
3 436 415 403
3 414 437 427
3 431 412 411
3 406 405 423
3 426 408 412
3 405 438 419
3 422 439 408
3 349 419 438
3 418 350 439
3 438 405 409
3 439 440 409
3 344 346 347
3 345 343 350
3 342 347 438
3 439 350 343
3 441 342 440
3 440 343 441
3 353 442 416
3 401 352 417
3 442 443 420
3 421 444 445
3 443 446 428
3 425 447 444
3 429 428 446
3 430 435 447
3 392 448 449
3 397 396 450
3 449 448 451
3 450 400 452
3 354 356 449
3 450 357 355
3 356 453 454
3 383 455 357
3 380 395 449
3 450 396 383
3 356 456 453
3 455 386 357
3 457 458 432
3 459 435 434
3 432 458 387
3 434 403 390
3 448 458 457
3 460 452 459
3 388 458 448
3 394 397 460
3 387 458 388
3 394 461 390
3 462 463 464
3 465 466 467
3 468 464 469
3 470 467 466
3 469 471 472
3 470 473 474
3 471 475 476
3 477 474 478
3 475 479 480
3 481 478 482
3 480 479 483
3 484 485 482
3 479 486 487
3 488 489 485
3 475 490 486
3 489 491 481
3 492 493 475
3 494 477 481
3 495 492 471
3 496 470 477
3 497 495 469
3 498 467 470
3 499 500 501
3 502 503 467
3 451 504 505
3 452 400 506
3 507 483 504
3 508 452 509
3 442 399 505
3 506 400 445
3 446 510 500
3 503 511 447
3 483 487 512
3 513 488 484
3 514 504 512
3 515 516 513
3 517 514 518
3 516 515 519
3 520 514 517
3 521 522 519
3 520 523 524
3 521 511 525
3 510 524 501
3 511 503 502
3 520 510 446
3 521 444 447
3 505 514 520
3 506 444 521
3 505 504 514
3 515 509 506
3 501 524 526
3 527 525 502
3 523 528 526
3 522 525 527
3 523 517 529
3 530 519 522
3 531 532 529
3 533 519 530
3 518 534 532
3 516 533 535
3 518 512 536
3 537 513 516
3 512 487 538
3 539 488 513
3 497 501 540
3 541 502 498
3 495 497 542
3 543 498 496
3 492 495 544
3 545 496 546
3 492 547 548
3 494 491 549
3 490 550 551
3 491 489 552
3 486 551 538
3 489 488 539
3 534 553 554
3 555 535 556
3 553 557 558
3 559 556 560
3 558 557 561
3 562 563 560
3 561 564 565
3 562 566 567
3 542 540 568
3 566 541 543
3 558 568 540
3 560 527 541
3 528 554 558
3 569 527 560
3 532 554 528
3 569 556 535
3 538 553 534
3 539 537 555
3 551 557 553
3 559 563 552
3 561 557 551
3 562 549 552
3 570 571 572
3 573 574 549
3 544 575 570
3 573 567 545
3 542 565 544
3 545 567 543
3 480 507 576
3 577 508 482
3 476 480 578
3 579 482 478
3 476 580 581
3 478 474 582
3 472 581 583
3 474 473 584
3 585 583 586
3 473 466 587
3 468 586 588
3 466 465 589
3 578 576 590
3 579 587 589
3 591 583 580
3 592 584 587
3 583 581 580
3 592 582 584
3 446 593 590
3 447 435 589
3 594 590 576
3 577 589 435
3 451 457 576
3 577 459 452
3 6 0 2
3 58 3 5
3 56 6 7
3 595 8 10
3 596 11 13
3 8 14 9
3 2 1 12
3 3 15 4
3 12 16 19
3 15 20 17
3 13 12 22
3 14 23 15
3 597 24 26
3 40 27 29
3 18 30 19
3 598 32 20
3 31 30 34
3 598 35 32
3 24 37 25
3 44 39 40
3 37 41 38
3 55 43 44
3 33 45 34
3 51 47 35
3 45 48 46
3 59 50 51
3 41 52 42
3 599 54 55
3 49 6 57
3 595 58 60
3 48 0 49
3 58 5 59
3 91 61 63
3 70 64 66
3 61 67 62
3 74 69 70
3 67 71 68
3 78 73 74
3 71 75 72
3 600 77 78
3 76 75 80
3 600 81 77
3 80 79 84
3 81 85 82
3 84 83 88
3 85 89 86
3 88 87 63
3 89 66 90
3 116 110 112
3 111 113 112
3 369 115 116
3 113 117 114
3 369 119 115
3 373 121 123
3 119 124 120
3 123 122 127
3 124 128 125
3 127 126 131
3 189 132 134
3 190 135 137
3 133 138 134
3 184 140 135
3 139 138 142
3 184 143 140
3 141 145 142
3 151 147 143
3 145 148 146
3 155 150 151
3 148 152 149
3 175 154 155
3 153 152 157
3 175 158 154
3 156 160 157
3 166 162 158
3 160 163 161
3 169 165 166
3 163 167 164
3 168 167 169
3 315 170 164
3 166 171 169
3 161 170 157
3 166 158 171
3 177 153 173
3 158 175 174
3 179 149 177
3 175 155 176
3 181 146 179
3 155 151 178
3 183 142 181
3 151 143 180
3 186 139 183
3 143 184 182
3 299 134 186
3 184 135 185
3 299 188 134
3 187 135 191
3 189 188 193
3 190 193 191
3 315 164 195
3 168 169 196
3 198 195 197
3 292 197 196
3 193 192 197
3 292 194 197
3 110 199 201
3 204 201 202
3 115 203 110
3 121 204 205
3 211 203 120
3 121 205 122
3 125 129 208
3 126 209 130
3 208 211 125
3 209 126 206
3 257 212 207
3 213 212 210
3 208 207 215
3 213 210 215
3 216 211 215
3 209 206 215
3 235 217 219
3 214 220 222
3 228 223 217
3 601 224 226
3 230 227 228
3 224 229 225
3 234 231 233
3 246 231 233
3 602 235 236
3 220 214 237
3 237 238 240
3 250 220 240
3 232 231 242
3 246 243 231
3 603 232 244
3 249 245 246
3 603 244 248
3 251 245 221
3 238 248 239
3 220 250 221
3 241 247 242
3 245 251 243
3 247 241 239
3 251 250 241
3 193 233 189
3 193 190 233
3 189 252 255
3 190 256 253
3 254 257 255
3 259 214 256
3 257 207 258
3 130 210 259
3 128 260 129
3 259 261 130
3 260 262 258
3 256 263 259
3 262 132 255
3 263 256 137
3 211 216 265
3 264 216 266
3 267 203 265
3 268 266 205
3 269 199 267
3 270 268 202
3 604 200 269
3 604 270 200
3 275 271 273
3 605 274 273
3 272 271 277
3 605 278 274
3 288 267 280
3 278 281 279
3 265 264 280
3 283 264 284
3 280 283 286
3 284 287 283
3 293 198 290
3 294 291 292
3 295 195 293
3 337 294 196
3 315 195 296
3 337 196 297
3 192 188 290
3 333 191 291
3 298 188 300
3 333 301 191
3 300 299 302
3 301 303 187
3 302 186 304
3 303 305 185
3 304 183 306
3 305 307 182
3 181 179 306
3 310 178 307
3 179 177 308
3 322 176 310
3 309 177 311
3 322 312 176
3 311 173 313
3 312 314 174
3 313 170 296
3 314 297 171
3 318 313 316
3 319 317 314
3 320 311 318
3 606 319 312
3 309 311 321
3 606 312 323
3 308 309 324
3 323 322 325
3 326 306 324
3 607 325 307
3 304 306 327
3 607 307 328
3 329 302 327
3 608 328 303
3 300 302 330
3 608 303 331
3 298 300 332
3 331 301 334
3 340 290 332
3 341 334 291
3 316 296 335
3 317 336 297
3 335 295 338
3 336 339 337
3 338 293 340
3 339 341 294
3 441 167 342
3 441 343 167
3 342 163 344
3 343 345 165
3 160 156 344
3 348 159 345
3 156 152 346
3 350 154 348
3 152 148 347
3 418 150 350
3 349 148 351
3 418 352 150
3 145 141 351
3 401 144 352
3 353 141 354
3 401 355 144
3 354 138 356
3 355 357 140
3 361 358 360
3 379 358 362
3 364 361 363
3 362 361 365
3 367 364 366
3 365 364 368
3 366 116 367
3 370 367 114
3 371 369 366
3 609 370 118
3 374 119 371
3 375 372 123
3 376 124 374
3 377 375 127
3 376 374 360
3 377 362 375
3 374 371 363
3 368 372 365
3 384 376 359
3 362 377 379
3 384 128 376
3 378 377 131
3 260 380 382
3 455 383 263
3 128 384 260
3 383 378 261
3 610 382 385
3 455 263 386
3 610 385 133
3 357 386 136
3 391 387 389
3 394 390 389
3 389 388 393
3 397 394 393
3 398 393 395
3 398 396 393
3 358 398 359
3 358 379 398
3 384 359 380
3 396 379 383
3 442 353 399
3 445 400 401
3 404 402 391
3 390 403 391
3 409 405 407
3 412 408 407
3 611 407 410
3 611 411 407
3 404 413 402
3 404 403 413
3 419 349 416
3 422 417 418
3 423 419 420
3 426 421 422
3 612 423 424
3 431 425 426
3 433 427 429
3 436 430 431
3 594 432 429
3 436 434 430
3 432 402 433
3 434 436 403
3 433 414 427
3 436 431 411
3 612 406 423
3 431 426 412
3 423 405 419
3 426 422 408
3 347 349 438
3 422 418 439
3 440 438 409
3 408 439 409
3 342 344 347
3 348 345 350
3 440 342 438
3 440 439 343
3 351 353 416
3 445 401 417
3 416 442 420
3 417 421 445
3 420 443 428
3 421 425 444
3 594 429 446
3 425 430 447
3 395 392 449
3 460 397 450
3 399 449 451
3 460 450 452
3 399 354 449
3 400 450 355
3 449 356 454
3 450 383 357
3 594 457 432
3 461 459 434
3 402 432 387
3 461 434 390
3 451 448 457
3 461 460 459
3 392 388 448
3 461 394 460
3 468 462 464
3 503 465 467
3 585 468 469
3 473 470 466
3 585 469 472
3 477 470 474
3 472 471 476
3 481 477 478
3 476 475 480
3 485 481 482
3 507 480 483
3 508 484 482
3 483 479 487
3 484 488 485
3 479 475 486
3 485 489 481
3 471 492 475
3 491 494 481
3 469 495 471
3 494 496 477
3 499 497 469
3 496 498 470
3 497 499 501
3 498 502 467
3 399 451 505
3 509 452 506
3 451 507 504
3 484 508 509
3 443 442 505
3 444 506 445
3 593 446 500
3 465 503 447
3 504 483 512
3 509 513 484
3 518 514 512
3 509 515 513
3 531 517 518
3 533 516 519
3 523 520 517
3 515 521 519
3 510 520 524
3 522 521 525
3 500 510 501
3 525 511 502
3 443 520 446
3 511 521 447
3 443 505 520
3 515 506 521
3 540 501 526
3 541 527 502
3 524 523 526
3 569 522 527
3 528 523 529
3 569 530 522
3 517 531 529
3 535 533 530
3 531 518 532
3 555 516 535
3 534 518 536
3 555 537 516
3 536 512 538
3 537 539 513
3 542 497 540
3 543 541 498
3 544 495 542
3 545 543 496
3 547 492 544
3 613 545 546
3 493 492 548
3 574 494 549
3 486 490 551
3 549 491 552
3 487 486 538
3 552 489 539
3 532 534 554
3 559 555 556
3 554 553 558
3 563 559 560
3 568 558 561
3 566 562 560
3 568 561 565
3 573 562 567
3 565 542 568
3 567 566 543
3 526 558 540
3 566 560 541
3 526 528 558
3 556 569 560
3 529 532 528
3 530 569 535
3 536 538 534
3 559 539 555
3 538 551 553
3 539 559 552
3 550 561 551
3 563 562 552
3 547 570 572
3 562 573 549
3 547 544 570
3 574 573 545
3 578 480 576
3 579 577 482
3 580 476 578
3 592 579 478
3 472 476 581
3 614 478 582
3 585 472 583
3 582 474 584
3 468 585 586
3 584 473 587
3 615 468 588
3 587 466 589
3 591 578 590
3 577 579 589
3 578 591 580
3 579 592 587
3 594 446 590
3 465 447 589
3 457 594 576
3 459 577 435
3 507 451 576
3 508 577 452
